<?xml version="1.0" encoding="iso-8859-1"?>
<!-- Generator: Adobe Illustrator 16.0.0, SVG Export Plug-In . SVG Version: 6.00 Build 0)  -->
<!DOCTYPE svg PUBLIC "-//W3C//DTD SVG 1.1//EN" "http://www.w3.org/Graphics/SVG/1.1/DTD/svg11.dtd">
<svg xmlns="http://www.w3.org/2000/svg" xmlns:xlink="http://www.w3.org/1999/xlink" version="1.1" id="Capa_1" x="0px" y="0px" width="512px" height="512px" viewBox="0 0 612 612" style="enable-background:new 0 0 612 612;" xml:space="preserve">
<g>
	<g id="Menu">
		<g>
			<path d="M153,344.25h76.5v-76.5H153V344.25z M306,459h153v-76.5H306V459z M153,459h76.5v-76.5H153V459z M306,229.5h153V153H306     V229.5z M535.5,0h-459C34.234,0,0,34.234,0,76.5v459C0,577.767,34.234,612,76.5,612h459c42.267,0,76.5-34.233,76.5-76.5v-459     C612,34.234,577.767,0,535.5,0z M535.5,497.25c0,21.114-17.136,38.25-38.25,38.25h-382.5c-21.114,0-38.25-17.136-38.25-38.25     v-382.5c0-21.114,17.136-38.25,38.25-38.25h382.5c21.114,0,38.25,17.136,38.25,38.25V497.25z M306,344.25h153v-76.5H306V344.25z      M153,229.5h76.5V153H153V229.5z" fill="#ff8a63"/>
		</g>
	</g>
</g>
<g>
</g>
<g>
</g>
<g>
</g>
<g>
</g>
<g>
</g>
<g>
</g>
<g>
</g>
<g>
</g>
<g>
</g>
<g>
</g>
<g>
</g>
<g>
</g>
<g>
</g>
<g>
</g>
<g>
</g>
</svg>
